# File created by Blade
# Date/Time:  Wed Jan 21 18:40:15 2015
#---------------------------------------------------------
:version 1.10
:name HOM
:units
  mass 1.0
  length 1.000000
  angle deg
:documentation
     Acclaim Skeleton File
:root
   axis xyz
   order TX TY TZ RX RY RZ
   position 0.000000 0.000000 0.000000
   orientation 0 0 0
:bonedata
   begin
      id 1
      name RightUpLeg_dum
      direction -1.000000 0.000000 0.000000
      length 3.693983
      axis 0.0 0.0 0.0 xyz
   end
   begin
      id 2
      name LeftUpLeg_dum
      direction 1.000000 0.000000 0.000000
      length 3.693983
      axis 0.0 0.0 0.0 xyz
   end
   begin
      id 3
      name Spine_dum
      direction 0.000000 1.000000 0.000000
      length 2.392956
      axis 0.0 0.0 0.0 xyz
   end
   begin
      id 4
      name RightUpLeg
      direction 0.000000 -1.000000 0.000000
      length 15.795667
      axis 0.0 0.0 0.0 xyz
      dof rx ry rz
   end
   begin
      id 5
      name RightLeg
      direction 0.000000 -1.000000 0.000000
      length 14.766989
      axis 0.0 0.0 0.0 xyz
      dof rx ry rz
   end
   begin
      id 6
      name RightFoot
      direction 0.000000 -0.258819 0.965926
      length 4.962790
      axis 15.0 0.0 0.0 xyz
      dof rx ry rz
   end
   begin
      id 7
      name RightToeBase
      direction 0.000000 0.000000 1.000000
      length 2.952750
      axis 0.0 0.0 0.0 xyz
      dof rx ry rz
   end
   begin
      id 8
      name LeftUpLeg
      direction 0.000000 -1.000000 0.000000
      length 15.795667
      axis 0.0 0.0 0.0 xyz
      dof rx ry rz
   end
   begin
      id 9
      name LeftLeg
      direction 0.000000 -1.000000 0.000000
      length 14.766989
      axis 0.0 0.0 0.0 xyz
      dof rx ry rz
   end
   begin
      id 10
      name LeftFoot
      direction 0.000000 -0.258819 0.965926
      length 4.962790
      axis 15.0 0.0 0.0 xyz
      dof rx ry rz
   end
   begin
      id 11
      name LeftToeBase
      direction 0.000000 0.000000 1.000000
      length 2.952750
      axis 0.0 0.0 0.0 xyz
      dof rx ry rz
   end
   begin
      id 12
      name Spine
      direction 0.000000 1.000000 0.000000
      length 0.000000
      axis 0.0 0.0 0.0 xyz
      dof rx ry rz
   end
   begin
      id 13
      name Spine_dum1
      direction 0.000000 1.000000 0.000000
      length 13.207411
      axis 0.0 0.0 0.0 xyz
   end
   begin
      id 14
      name Spine_dum2
      direction 0.000000 1.000000 0.000000
      length 13.207411
      axis 0.0 0.0 0.0 xyz
   end
   begin
      id 15
      name Spine_dum3
      direction 0.000000 1.000000 0.000000
      length 19.250100
      axis 0.0 0.0 0.0 xyz
   end
   begin
      id 16
      name RightShoulder
      direction -1.000000 0.000000 0.000000
      length 8.140465
      axis 0.0 0.0 90.0 xyz
      dof rx ry rz
   end
   begin
      id 17
      name RightArm
      direction -1.000000 0.000000 0.000000
      length 10.649840
      axis 0.0 0.0 90.0 xyz
      dof rx ry rz
   end
   begin
      id 18
      name RightForeArm
      direction -1.000000 0.000000 0.000000
      length 8.304624
      axis 0.0 0.0 90.0 xyz
      dof ry rz rx
   end
   begin
      id 19
      name RightHand
      direction -1.000000 0.000000 0.000000
      length 0.000000
      axis 0.0 0.0 90.0 xyz
      dof rx ry rz
   end
   begin
      id 20
      name RightHand_dum1
      direction -1.000000 0.000000 0.000000
      length 3.937000
      axis 0.0 0.0 90.0 xyz
   end
   begin
      id 21
      name RightHand_dum2
      direction 0.000000 0.000000 0.000000
      length 0.000000
      axis 0.0 0.0 90.0 xyz
   end
   begin
      id 22
      name RightHandThumb1
      direction 0.000000 0.000000 1.000000
      length 3.937000
      axis 0.0 0.0 90.0 xyz
      dof rx rz ry
   end
   begin
      id 23
      name LeftShoulder
      direction 1.000000 0.000000 0.000000
      length 8.140465
      axis 0.0 0.0 -90.0 xyz
      dof rx ry rz
   end
   begin
      id 24
      name LeftArm
      direction 1.000000 0.000000 0.000000
      length 10.649840
      axis 0.0 0.0 -90.0 xyz
      dof rx ry rz
   end
   begin
      id 25
      name LeftForeArm
      direction 1.000000 0.000000 0.000000
      length 8.304624
      axis 0.0 0.0 -90.0 xyz
      dof ry rz rx
   end
   begin
      id 26
      name LeftHand
      direction 1.000000 0.000000 0.000000
      length 0.000000
      axis 0.0 0.0 -90.0 xyz
      dof rx ry rz
   end
   begin
      id 27
      name LeftHand_dum1
      direction 1.000000 0.000000 0.000000
      length 3.937000
      axis 0.0 0.0 -90.0 xyz
   end
   begin
      id 28
      name LeftHand_dum2
      direction 0.000000 0.000000 0.000000
      length 0.000000
      axis 0.0 0.0 -90.0 xyz
   end
   begin
      id 29
      name LeftHandThumb1
      direction 0.000000 0.000000 1.000000
      length 3.937000
      axis 0.0 0.0 -90.0 xyz
      dof rx rz ry
   end
   begin
      id 30
      name Head
      direction 0.000000 1.000000 0.000000
      length 4.527550
      axis 0.0 0.0 0.0 xyz
      dof rx ry rz
   end
:hierarchy
   begin
      root RightUpLeg_dum LeftUpLeg_dum Spine_dum
      RightUpLeg_dum RightUpLeg
      LeftUpLeg_dum LeftUpLeg
      Spine_dum Spine
      RightUpLeg RightLeg
      RightLeg RightFoot
      RightFoot RightToeBase
      LeftUpLeg LeftLeg
      LeftLeg LeftFoot
      LeftFoot LeftToeBase
      Spine Spine_dum1 Spine_dum2 Spine_dum3
      Spine_dum1 RightShoulder
      Spine_dum2 LeftShoulder
      Spine_dum3 Head
      RightShoulder RightArm
      RightArm RightForeArm
      RightForeArm RightHand
      RightHand RightHand_dum1 RightHand_dum2
      RightHand_dum2 RightHandThumb1
      LeftShoulder LeftArm
      LeftArm LeftForeArm
      LeftForeArm LeftHand
      LeftHand LeftHand_dum1 LeftHand_dum2
      LeftHand_dum2 LeftHandThumb1
   end

# File created by Blade
# Date/Time:  Wed Jan 21 18:40:08 2015
# Frame Rate: 120.000 fps
#------------------------------------------------------
:FULLY-SPECIFIED
:DEGREES
1244
root 0.141144 28.258976 -10.820272 127.210646 -43.158145 1.934890
RightUpLeg -155.441375 -18.444539 8.381825
RightLeg 0.936663 -0.000000 -0.000000
RightFoot 15.840416 7.300494 40.168614
RightToeBase 20.928180 -0.000000 -0.000000
LeftUpLeg -112.886181 2.111704 -47.387693
LeftLeg -8.546952 -0.000000 0.000000
LeftFoot -0.422875 7.306572 -20.846202
LeftToeBase 8.815932 -0.000000 -0.000000
Spine -43.112834 -49.798737 53.501775
RightShoulder -31.022526 -14.546604 -39.732486
RightArm -30.579805 -25.631355 78.710004
RightForeArm 5.352753 -0.000000 -16.161003
RightHand 9.199787 -0.000000 4.861992
RightHandThumb1 -24.326973 -0.000000 -32.862282
LeftShoulder 5.780858 -10.894210 47.355427
LeftArm 48.109631 26.181584 -17.234724
LeftForeArm 29.677502 -0.000000 10.686675
LeftHand -22.113300 -0.000000 33.109344
LeftHandThumb1 -26.253704 0.000000 33.147579
Head -32.583922 -52.602940 42.421871
1245
root 0.135546 28.252078 -10.826672 127.350597 -43.128301 1.852098
RightUpLeg -155.501843 -18.473265 8.350116
RightLeg 0.920540 -0.000000 -0.000000
RightFoot 15.810804 7.252990 40.459395
RightToeBase 21.083172 -0.000000 -0.000000
LeftUpLeg -112.952672 2.028737 -47.572182
LeftLeg -8.652003 -0.000000 0.000000
LeftFoot -0.363715 7.098599 -20.652120
LeftToeBase 8.878657 -0.000000 -0.000000
Spine -43.264684 -49.893524 53.691888
RightShoulder -31.016938 -14.626364 -39.812311
RightArm -30.795808 -25.911884 78.870580
RightForeArm 5.243497 -0.000000 -16.063893
RightHand 8.986365 -0.000000 5.246597
RightHandThumb1 -24.326973 -0.000000 -32.862282
LeftShoulder 5.622144 -10.748436 47.403624
LeftArm 47.929152 26.163624 -17.256059
LeftForeArm 29.432474 -0.000000 10.902150
LeftHand -22.027203 -0.000000 33.775326
LeftHandThumb1 -26.253704 0.000000 33.147579
Head -32.456266 -52.849566 42.372866
1246
root 0.126664 28.247960 -10.835598 127.509157 -43.101958 1.734532
RightUpLeg -155.557343 -18.452965 8.299230
RightLeg 0.918263 -0.000000 -0.000000
RightFoot 15.748568 7.236377 40.673188
RightToeBase 21.279435 -0.000000 -0.000000
LeftUpLeg -113.029501 1.988519 -47.736291
LeftLeg -8.760593 -0.000000 0.000000
LeftFoot -0.302223 6.926242 -20.564699
LeftToeBase 8.877769 -0.000000 -0.000000
Spine -43.379392 -49.995776 53.815249
RightShoulder -31.070639 -14.816988 -39.843276
RightArm -30.742188 -26.094915 78.891114
RightForeArm 5.127747 -0.000000 -16.101726
RightHand 8.904065 -0.000000 5.635803
RightHandThumb1 -24.326973 -0.000000 -32.862282
LeftShoulder 5.433400 -10.615962 47.481344
LeftArm 47.848276 26.151470 -17.295218
LeftForeArm 29.291864 0.000000 11.039777
LeftHand -22.011870 0.000000 34.301480
LeftHandThumb1 -26.253704 0.000000 33.147579
Head -32.325227 -52.986204 42.339303
1247
root 0.121274 28.241937 -10.840261 127.663827 -43.080520 1.643009
RightUpLeg -155.629736 -18.435936 8.281041
RightLeg 0.907761 -0.000000 -0.000000
RightFoot 15.723220 7.319439 40.777504
RightToeBase 21.356833 -0.000000 -0.000000
LeftUpLeg -113.075251 1.950566 -47.826829
LeftLeg -8.899969 -0.000000 0.000000
LeftFoot -0.277961 6.820564 -20.442466
LeftToeBase 8.916976 -0.000000 -0.000000
Spine -43.562295 -50.100749 53.999188
RightShoulder -31.004263 -14.878292 -39.943589
RightArm -30.895249 -26.196238 78.988343
RightForeArm 5.051845 -0.000000 -16.083245
RightHand 8.774267 -0.000000 5.907133
RightHandThumb1 -24.326973 -0.000000 -32.862282
LeftShoulder 5.249677 -10.464960 47.582434
LeftArm 47.758492 26.045066 -17.490592
LeftForeArm 29.249764 -0.000000 11.124410
LeftHand -21.961704 -0.000000 34.582048
LeftHandThumb1 -26.253704 0.000000 33.147579
Head -32.034005 -53.062613 42.158603
1248
root 0.114312 28.237471 -10.843591 127.825261 -43.057609 1.557980
RightUpLeg -155.720421 -18.387539 8.284331
RightLeg 0.916546 -0.000000 -0.000000
RightFoot 15.683216 7.423868 40.946675
RightToeBase 21.544540 -0.000000 -0.000000
LeftUpLeg -113.156473 1.854347 -47.997185
LeftLeg -8.983768 -0.000000 0.000000
LeftFoot -0.244403 6.652090 -20.256262
LeftToeBase 8.983208 -0.000000 -0.000000
Spine -43.738285 -50.191626 54.183252
RightShoulder -31.003783 -14.929920 -40.065678
RightArm -30.979562 -26.226765 79.003559
RightForeArm 4.954950 0.000000 -16.051143
RightHand 8.579605 -0.000000 6.088310
RightHandThumb1 -24.326973 -0.000000 -32.862282
LeftShoulder 5.069671 -10.381624 47.687205
LeftArm 47.670959 25.999597 -17.697385
LeftForeArm 29.113246 -0.000000 11.206626
LeftHand -21.918266 -0.000000 34.779120
LeftHandThumb1 -26.253704 0.000000 33.147579
Head -31.824764 -53.201937 42.051450
